<svg width="32" height="32" viewBox="0 0 32 32" fill="none" xmlns="http://www.w3.org/2000/svg">
<path d="M25.5512 6.45376C23.6632 4.56583 21.2577 3.28017 18.639 2.75934C16.0203 2.23851 13.3059 2.50591 10.8392 3.52772C8.37244 4.54952 6.26408 6.27985 4.78071 8.4999C3.29735 10.7199 2.50562 13.33 2.50562 16C2.50562 18.67 3.29735 21.2801 4.78071 23.5001C6.26408 25.7202 8.37244 27.4505 10.8392 28.4723C13.3059 29.4941 16.0203 29.7615 18.639 29.2407C21.2577 28.7198 23.6632 27.4342 25.5512 25.5463C26.8142 24.2979 27.8169 22.8113 28.5013 21.1727C29.1857 19.534 29.538 17.7758 29.538 16C29.538 14.2242 29.1857 12.466 28.5013 10.8274C27.8169 9.18869 26.8142 7.70212 25.5512 6.45376ZM23.4262 8.57876C23.8296 8.9801 24.1995 9.41361 24.5325 9.87501L21.125 13.8863L18.2125 5.73501C20.1895 6.15669 22.0016 7.14329 23.4287 8.57501L23.4262 8.57876ZM8.57 8.57876C10.2826 6.85752 12.542 5.78771 14.9587 5.55376L16.7287 10.51L8.21375 8.95126C8.33 8.82376 8.44875 8.69876 8.5725 8.57501L8.57 8.57876ZM6 19.2125C5.20803 16.7335 5.35938 14.0493 6.425 11.675L11.605 12.625L6 19.2125ZM8.56875 23.425C8.16703 23.0222 7.79874 22.5875 7.4675 22.125L10.875 18.1138L13.7875 26.265C11.8109 25.843 9.99933 24.8565 8.5725 23.425H8.56875ZM13.1137 15.4738L15.0112 13.2425L17.8937 13.7688L18.8787 16.5263L16.9825 18.7575L14.1 18.2313L13.1137 15.4738ZM23.425 23.425C21.7121 25.1458 19.4529 26.2155 17.0362 26.45L15.2687 21.5L23.7862 23.055C23.67 23.1763 23.5512 23.3013 23.4287 23.425H23.425ZM20.395 19.375L26 12.7875C26.7922 15.2666 26.6404 17.951 25.5737 20.325L20.395 19.375Z" fill="#4A00FF"/>
</svg>
