<svg width="12" height="12" viewBox="0 0 12 12" fill="none" xmlns="http://www.w3.org/2000/svg">
<path d="M9.25078 2.41967L9.77297 1.89795C9.82529 1.84562 9.8668 1.78351 9.89512 1.71514C9.92343 1.64678 9.93801 1.57351 9.93801 1.49951C9.93801 1.42551 9.92343 1.35224 9.89512 1.28388C9.8668 1.21551 9.82529 1.1534 9.77297 1.10107C9.72065 1.04875 9.65853 1.00724 9.59017 0.978927C9.5218 0.95061 9.44853 0.936035 9.37453 0.936035C9.30054 0.936035 9.22726 0.95061 9.1589 0.978927C9.09054 1.00724 9.02842 1.04875 8.9761 1.10107L8.40656 1.67295C7.69553 1.19357 6.85754 0.93747 6 0.93747C5.14247 0.93747 4.30447 1.19357 3.59344 1.67295L3.02297 1.10201C2.9173 0.996339 2.77398 0.936973 2.62453 0.936973C2.47509 0.936973 2.33177 0.996339 2.2261 1.10201C2.12042 1.20768 2.06106 1.35101 2.06106 1.50045C2.06106 1.64989 2.12042 1.79321 2.2261 1.89889L2.74922 2.41967C2.06386 3.20317 1.68654 4.20902 1.6875 5.24998V7.12498C1.6875 8.26873 2.14185 9.36563 2.9506 10.1744C3.75935 10.9831 4.85626 11.4375 6 11.4375C7.14375 11.4375 8.24065 10.9831 9.0494 10.1744C9.85815 9.36563 10.3125 8.26873 10.3125 7.12498V5.24998C10.3135 4.20902 9.93614 3.20317 9.25078 2.41967ZM9.1875 5.24998V5.43748H2.8125V5.24998C2.8125 4.4046 3.14833 3.59385 3.7461 2.99608C4.34387 2.3983 5.15462 2.06248 6 2.06248C6.84538 2.06248 7.65613 2.3983 8.25391 2.99608C8.85168 3.59385 9.1875 4.4046 9.1875 5.24998ZM6 10.3125C5.15489 10.3116 4.34464 9.97551 3.74706 9.37792C3.14947 8.78034 2.81337 7.97009 2.8125 7.12498V6.56248H9.1875V7.12498C9.18663 7.97009 8.85053 8.78034 8.25295 9.37792C7.65536 9.97551 6.84511 10.3116 6 10.3125ZM6.5625 4.12498C6.5625 3.97664 6.60649 3.83164 6.6889 3.7083C6.77131 3.58497 6.88844 3.48884 7.02549 3.43207C7.16253 3.3753 7.31333 3.36045 7.45882 3.38939C7.60431 3.41833 7.73794 3.48976 7.84283 3.59465C7.94772 3.69954 8.01915 3.83318 8.04809 3.97866C8.07703 4.12415 8.06218 4.27495 8.00541 4.41199C7.94865 4.54904 7.85252 4.66617 7.72918 4.74858C7.60584 4.83099 7.46084 4.87498 7.3125 4.87498C7.11359 4.87498 6.92282 4.79596 6.78217 4.65531C6.64152 4.51466 6.5625 4.32389 6.5625 4.12498ZM3.9375 4.12498C3.9375 3.97664 3.98149 3.83164 4.0639 3.7083C4.14631 3.58497 4.26344 3.48884 4.40049 3.43207C4.53753 3.3753 4.68833 3.36045 4.83382 3.38939C4.97931 3.41833 5.11294 3.48976 5.21783 3.59465C5.32272 3.69954 5.39415 3.83318 5.42309 3.97866C5.45203 4.12415 5.43718 4.27495 5.38041 4.41199C5.32365 4.54904 5.22752 4.66617 5.10418 4.74858C4.98084 4.83099 4.83584 4.87498 4.6875 4.87498C4.48859 4.87498 4.29782 4.79596 4.15717 4.65531C4.01652 4.51466 3.9375 4.32389 3.9375 4.12498Z" fill="#EF4444"/>
</svg>
