<svg width="12" height="12" viewBox="0 0 12 12" fill="none" xmlns="http://www.w3.org/2000/svg">
<path d="M6 0.9375C4.99873 0.9375 4.01995 1.23441 3.18743 1.79069C2.3549 2.34696 1.70603 3.13761 1.32286 4.06266C0.939694 4.98772 0.839439 6.00562 1.03478 6.98764C1.23011 7.96967 1.71227 8.87173 2.42027 9.57973C3.12828 10.2877 4.03033 10.7699 5.01236 10.9652C5.99439 11.1606 7.01229 11.0603 7.93734 10.6771C8.86239 10.294 9.65304 9.6451 10.2093 8.81257C10.7656 7.98005 11.0625 7.00127 11.0625 6C11.061 4.6578 10.5272 3.371 9.57809 2.42192C8.62901 1.47284 7.3422 0.938989 6 0.9375ZM8.07422 7.27875C8.3117 6.8945 8.43748 6.45171 8.43748 6C8.43748 5.54829 8.3117 5.1055 8.07422 4.72125L9.15235 3.64313C9.66201 4.32319 9.9375 5.15015 9.9375 6C9.9375 6.84985 9.66201 7.67681 9.15235 8.35687L8.07422 7.27875ZM4.6875 6C4.6875 5.74041 4.76448 5.48665 4.9087 5.27081C5.05292 5.05497 5.2579 4.88675 5.49773 4.78741C5.73756 4.68807 6.00146 4.66208 6.25606 4.71272C6.51066 4.76336 6.74452 4.88837 6.92808 5.07192C7.11164 5.25548 7.23664 5.48934 7.28728 5.74394C7.33793 5.99854 7.31193 6.26244 7.21259 6.50227C7.11325 6.7421 6.94503 6.94708 6.72919 7.0913C6.51335 7.23552 6.25959 7.3125 6 7.3125C5.65191 7.3125 5.31807 7.17422 5.07192 6.92808C4.82578 6.68194 4.6875 6.3481 4.6875 6ZM8.35688 2.84766L7.27875 3.92578C6.8945 3.6883 6.45171 3.56252 6 3.56252C5.54829 3.56252 5.1055 3.6883 4.72125 3.92578L3.64313 2.84766C4.32319 2.33799 5.15015 2.0625 6 2.0625C6.84986 2.0625 7.67681 2.33799 8.35688 2.84766ZM2.84766 3.64453L3.92578 4.72266C3.68831 5.10691 3.56252 5.54969 3.56252 6.00141C3.56252 6.45312 3.68831 6.89591 3.92578 7.28016L2.84766 8.35828C2.33799 7.67822 2.0625 6.85126 2.0625 6.00141C2.0625 5.15155 2.33799 4.3246 2.84766 3.64453ZM3.64453 9.15375L4.72266 8.07562C5.10691 8.3131 5.5497 8.43889 6.00141 8.43889C6.45312 8.43889 6.89591 8.3131 7.28016 8.07562L8.35828 9.15375C7.67822 9.66342 6.85126 9.93891 6.00141 9.93891C5.15155 9.93891 4.3246 9.66342 3.64453 9.15375Z" fill="#D97706"/>
</svg>
