<svg width="16" height="16" viewBox="0 0 16 16" fill="none" xmlns="http://www.w3.org/2000/svg">
<path d="M5.77371 2.37811C5.74898 2.28269 5.74331 2.18334 5.75701 2.08573C5.77071 1.98812 5.80351 1.89417 5.85355 1.80925C5.90358 1.72432 5.96987 1.6501 6.04861 1.59081C6.12735 1.53153 6.21701 1.48834 6.31246 1.46373C7.41931 1.17794 8.58061 1.17794 9.68746 1.46373C9.78496 1.48631 9.87696 1.52817 9.95804 1.58685C10.0391 1.64553 10.1076 1.71985 10.1595 1.80542C10.2114 1.89099 10.2457 1.98609 10.2603 2.08511C10.2749 2.18412 10.2695 2.28506 10.2445 2.38196C10.2194 2.47887 10.1753 2.56978 10.1145 2.64935C10.0538 2.72892 9.97781 2.79553 9.89095 2.84526C9.8041 2.89499 9.70817 2.92684 9.60882 2.93892C9.50946 2.951 9.4087 2.94307 9.31246 2.91561C8.45153 2.69363 7.54838 2.69363 6.68746 2.91561C6.49501 2.96539 6.29068 2.93675 6.11934 2.83596C5.94801 2.73518 5.82369 2.5705 5.77371 2.37811ZM3.18371 3.27123C2.38305 4.08697 1.80244 5.0925 1.49621 6.19373C1.4699 6.28869 1.46257 6.38791 1.47463 6.4857C1.48669 6.5835 1.5179 6.67796 1.56648 6.76369C1.61507 6.84942 1.68006 6.92474 1.75777 6.98533C1.83547 7.04593 1.92435 7.09062 2.01933 7.11686C2.08451 7.13463 2.15177 7.14367 2.21933 7.14373C2.38333 7.14366 2.54278 7.08983 2.67327 6.99049C2.80376 6.89116 2.8981 6.75179 2.94183 6.59373C3.18 5.73756 3.6316 4.95586 4.25433 4.32186C4.32332 4.25156 4.37778 4.16836 4.41461 4.07701C4.45144 3.98567 4.46992 3.88796 4.46899 3.78947C4.46806 3.69098 4.44775 3.59364 4.4092 3.50301C4.37065 3.41237 4.31463 3.33022 4.24433 3.26123C4.17403 3.19225 4.09083 3.13778 3.99949 3.10095C3.90814 3.06412 3.81044 3.04564 3.71195 3.04657C3.61346 3.0475 3.51612 3.06781 3.42548 3.10636C3.33485 3.14491 3.25269 3.20093 3.18371 3.27123ZM2.94121 9.40498C2.88479 9.21706 2.75697 9.05872 2.58517 8.96394C2.41337 8.86916 2.21127 8.84548 2.02221 8.89798C1.83315 8.95048 1.6722 9.07497 1.57386 9.24476C1.47553 9.41456 1.44765 9.61612 1.49621 9.80623C1.80199 10.908 2.38265 11.9141 3.18371 12.73C3.32567 12.859 3.51169 12.9287 3.70349 12.9248C3.89529 12.9209 4.0783 12.8436 4.21487 12.7089C4.35144 12.5742 4.43119 12.3922 4.43772 12.2005C4.44424 12.0088 4.37705 11.8218 4.24996 11.6781C3.6284 11.0433 3.1781 10.2612 2.94121 9.40498ZM9.31246 13.0844C8.45157 13.3066 7.54834 13.3066 6.68746 13.0844C6.59121 13.0569 6.49045 13.049 6.39109 13.061C6.29174 13.0731 6.19581 13.105 6.10896 13.1547C6.0221 13.2044 5.94608 13.271 5.88537 13.3506C5.82465 13.4302 5.78048 13.5211 5.75545 13.618C5.73042 13.7149 5.72504 13.8158 5.73963 13.9149C5.75421 14.0139 5.78847 14.109 5.84038 14.1945C5.89229 14.2801 5.9608 14.3544 6.04187 14.4131C6.12295 14.4718 6.21495 14.5137 6.31246 14.5362C7.41931 14.822 8.58061 14.822 9.68746 14.5362C9.78496 14.5137 9.87696 14.4718 9.95804 14.4131C10.0391 14.3544 10.1076 14.2801 10.1595 14.1945C10.2114 14.109 10.2457 14.0139 10.2603 13.9149C10.2749 13.8158 10.2695 13.7149 10.2445 13.618C10.2194 13.5211 10.1753 13.4302 10.1145 13.3506C10.0538 13.271 9.97781 13.2044 9.89095 13.1547C9.8041 13.105 9.70817 13.0731 9.60882 13.061C9.50946 13.049 9.4087 13.0569 9.31246 13.0844ZM13.9825 8.88311C13.7911 8.83093 13.5869 8.85668 13.4144 8.95472C13.242 9.05276 13.1155 9.2151 13.0625 9.40623C12.8243 10.2624 12.3727 11.0441 11.75 11.6781C11.6106 11.82 11.5332 12.0115 11.535 12.2104C11.5367 12.4093 11.6174 12.5993 11.7593 12.7387C11.9012 12.8781 12.0927 12.9555 12.2916 12.9537C12.4905 12.9519 12.6806 12.8712 12.82 12.7294C13.6205 11.9133 14.2011 10.9076 14.5075 9.80623C14.5337 9.7111 14.5409 9.61173 14.5287 9.5138C14.5165 9.41588 14.4851 9.32133 14.4362 9.23557C14.3874 9.14982 14.3221 9.07454 14.2442 9.01405C14.1662 8.95357 14.077 8.90907 13.9818 8.88311H13.9825ZM13.0593 6.59498C13.1157 6.7829 13.2436 6.94124 13.4154 7.03602C13.5872 7.1308 13.7893 7.15448 13.9783 7.10198C14.1674 7.04948 14.3283 6.92499 14.4267 6.7552C14.525 6.5854 14.5529 6.38384 14.5043 6.19373C14.1985 5.09195 13.6179 4.0859 12.8168 3.26998C12.7491 3.19427 12.6668 3.1331 12.5747 3.09017C12.4827 3.04725 12.3828 3.02347 12.2813 3.02028C12.1798 3.01709 12.0787 3.03455 11.9841 3.0716C11.8896 3.10865 11.8035 3.16453 11.7312 3.23584C11.6589 3.30714 11.6018 3.3924 11.5634 3.48643C11.525 3.58047 11.5061 3.68132 11.5079 3.78287C11.5096 3.88442 11.532 3.98456 11.5736 4.07721C11.6152 4.16986 11.6752 4.25309 11.75 4.32186C12.3715 4.95663 12.8218 5.73874 13.0587 6.59498H13.0593Z" fill="#00A96E"/>
</svg>
